<svg width="963" height="963" xmlns="http://www.w3.org/2000/svg" xmlns:xlink="http://www.w3.org/1999/xlink" xml:space="preserve" overflow="hidden"><defs><linearGradient x1="1374.12" y1="1228.17" x2="1695.44" y2="1441.01" gradientUnits="userSpaceOnUse" spreadMethod="reflect" id="fill0"><stop offset="0" stop-color="#00B050" stop-opacity="1"/><stop offset="0.61" stop-color="#FFA200" stop-opacity="1"/><stop offset="0.82" stop-color="#FF0000" stop-opacity="1"/><stop offset="1" stop-color="#C00000" stop-opacity="1"/></linearGradient><linearGradient x1="1875.34" y1="529.367" x2="1119.14" y2="1285.56" gradientUnits="userSpaceOnUse" spreadMethod="reflect" id="fill1"><stop offset="0" stop-color="#C00000" stop-opacity="1"/><stop offset="0.31" stop-color="#FF0000" stop-opacity="1"/><stop offset="0.73" stop-color="#FFC000" stop-opacity="1"/><stop offset="1" stop-color="#00B050" stop-opacity="1"/></linearGradient><linearGradient x1="1875.34" y1="529.367" x2="1119.14" y2="1285.56" gradientUnits="userSpaceOnUse" spreadMethod="reflect" id="fill2"><stop offset="0" stop-color="#C00000" stop-opacity="1"/><stop offset="0.31" stop-color="#FF0000" stop-opacity="1"/><stop offset="0.73" stop-color="#FFC000" stop-opacity="1"/><stop offset="1" stop-color="#00B050" stop-opacity="1"/></linearGradient><linearGradient x1="1875.34" y1="529.367" x2="1119.14" y2="1285.56" gradientUnits="userSpaceOnUse" spreadMethod="reflect" id="fill3"><stop offset="0" stop-color="#C00000" stop-opacity="1"/><stop offset="0.31" stop-color="#FF0000" stop-opacity="1"/><stop offset="0.73" stop-color="#FFC000" stop-opacity="1"/><stop offset="1" stop-color="#00B050" stop-opacity="1"/></linearGradient><linearGradient x1="1875.34" y1="529.367" x2="1119.14" y2="1285.56" gradientUnits="userSpaceOnUse" spreadMethod="reflect" id="fill4"><stop offset="0" stop-color="#C00000" stop-opacity="1"/><stop offset="0.31" stop-color="#FF0000" stop-opacity="1"/><stop offset="0.73" stop-color="#FFC000" stop-opacity="1"/><stop offset="1" stop-color="#00B050" stop-opacity="1"/></linearGradient><linearGradient x1="1242.24" y1="517.761" x2="1222.76" y2="537.24" gradientUnits="userSpaceOnUse" spreadMethod="reflect" id="stroke5"><stop offset="0" stop-color="#C00000" stop-opacity="1"/><stop offset="0.57" stop-color="#FF0000" stop-opacity="1"/><stop offset="0.81" stop-color="#FFC000" stop-opacity="1"/><stop offset="1" stop-color="#00B050" stop-opacity="1"/></linearGradient><linearGradient x1="1875.34" y1="529.367" x2="1119.14" y2="1285.56" gradientUnits="userSpaceOnUse" spreadMethod="reflect" id="fill6"><stop offset="0" stop-color="#C00000" stop-opacity="1"/><stop offset="0.31" stop-color="#FF0000" stop-opacity="1"/><stop offset="0.73" stop-color="#FFC000" stop-opacity="1"/><stop offset="1" stop-color="#00B050" stop-opacity="1"/></linearGradient><linearGradient x1="1875.34" y1="529.367" x2="1119.14" y2="1285.56" gradientUnits="userSpaceOnUse" spreadMethod="reflect" id="fill7"><stop offset="0" stop-color="#C00000" stop-opacity="1"/><stop offset="0.31" stop-color="#FF0000" stop-opacity="1"/><stop offset="0.73" stop-color="#FFC000" stop-opacity="1"/><stop offset="1" stop-color="#00B050" stop-opacity="1"/></linearGradient></defs><g transform="translate(-1026 -476)"><g><path d="M1734.34 1235.63C1746.93 1297.62 1662.68 1367.06 1546.18 1390.71 1429.67 1414.37 1325.01 1383.3 1312.42 1321.31 1352.48 1377.72 1476.99 1392.43 1590.53 1354.16 1668.45 1327.89 1724.13 1282 1734.34 1235.63Z" fill="url(#fill0)" fill-rule="evenodd"/><path d="M1311 732C1311 728.134 1314.13 725 1318 725L1346 725C1349.87 725 1353 728.134 1353 732L1353 1164C1353 1167.87 1349.87 1171 1346 1171L1318 1171C1314.13 1171 1311 1167.87 1311 1164Z" fill="url(#fill1)" fill-rule="evenodd"/><path d="M1833 637.667C1833 633.985 1835.98 631 1839.67 631L1866.33 631C1870.02 631 1873 633.985 1873 637.667L1873 1069.33C1873 1073.02 1870.02 1076 1866.33 1076L1839.67 1076C1835.98 1076 1833 1073.02 1833 1069.33Z" fill="url(#fill2)" fill-rule="evenodd"/><path d="M1670.6 1009.15C1713.03 962.786 1786.16 960.653 1833.95 1004.38 1881.74 1048.12 1886.09 1121.15 1843.67 1167.52 1801.24 1213.88 1728.11 1216.02 1680.31 1172.28 1632.52 1128.55 1628.17 1055.51 1670.6 1009.15Z" fill="url(#fill3)" fill-rule="evenodd"/><path d="M1150.19 1092.84C1192.62 1046.48 1265.75 1044.35 1313.54 1088.08 1361.33 1131.81 1365.68 1204.85 1323.26 1251.21 1280.83 1297.58 1207.69 1299.71 1159.9 1255.98 1112.11 1212.25 1107.76 1139.21 1150.19 1092.84Z" fill="url(#fill4)" fill-rule="evenodd"/><path d="M1232.5 527.5 1232.5 527.501" stroke="url(#stroke5)" stroke-width="19.4792" stroke-linecap="butt" stroke-linejoin="miter" stroke-miterlimit="8" fill="url(#fill6)" fill-rule="evenodd"/><path d="M1871.63 572.414 1873.47 580.75 1872.27 721.805 1313.33 845.021 1311.48 836.626 1311.61 695.868Z" fill="url(#fill7)" fill-rule="evenodd"/></g></g></svg>