<svg width="1458" height="1458" xmlns="http://www.w3.org/2000/svg" xmlns:xlink="http://www.w3.org/1999/xlink" xml:space="preserve" overflow="hidden"><defs><linearGradient x1="1164.64" y1="1181.22" x2="1485.96" y2="1394.06" gradientUnits="userSpaceOnUse" spreadMethod="reflect" id="fill0"><stop offset="0" stop-color="#00B050" stop-opacity="1"/><stop offset="0.61" stop-color="#FFA200" stop-opacity="1"/><stop offset="0.82" stop-color="#FF0000" stop-opacity="1"/><stop offset="1" stop-color="#C00000" stop-opacity="1"/></linearGradient><linearGradient x1="1665.87" y1="482.379" x2="909.653" y2="1238.6" gradientUnits="userSpaceOnUse" spreadMethod="reflect" id="fill1"><stop offset="0" stop-color="#C00000" stop-opacity="1"/><stop offset="0.31" stop-color="#FF0000" stop-opacity="1"/><stop offset="0.73" stop-color="#FFC000" stop-opacity="1"/><stop offset="1" stop-color="#00B050" stop-opacity="1"/></linearGradient><linearGradient x1="1665.87" y1="482.379" x2="909.653" y2="1238.6" gradientUnits="userSpaceOnUse" spreadMethod="reflect" id="fill2"><stop offset="0" stop-color="#C00000" stop-opacity="1"/><stop offset="0.31" stop-color="#FF0000" stop-opacity="1"/><stop offset="0.73" stop-color="#FFC000" stop-opacity="1"/><stop offset="1" stop-color="#00B050" stop-opacity="1"/></linearGradient><linearGradient x1="1665.87" y1="482.379" x2="909.653" y2="1238.6" gradientUnits="userSpaceOnUse" spreadMethod="reflect" id="fill3"><stop offset="0" stop-color="#C00000" stop-opacity="1"/><stop offset="0.31" stop-color="#FF0000" stop-opacity="1"/><stop offset="0.73" stop-color="#FFC000" stop-opacity="1"/><stop offset="1" stop-color="#00B050" stop-opacity="1"/></linearGradient><linearGradient x1="1665.87" y1="482.379" x2="909.653" y2="1238.6" gradientUnits="userSpaceOnUse" spreadMethod="reflect" id="fill4"><stop offset="0" stop-color="#C00000" stop-opacity="1"/><stop offset="0.31" stop-color="#FF0000" stop-opacity="1"/><stop offset="0.73" stop-color="#FFC000" stop-opacity="1"/><stop offset="1" stop-color="#00B050" stop-opacity="1"/></linearGradient><linearGradient x1="1033.24" y1="470.761" x2="1013.76" y2="490.24" gradientUnits="userSpaceOnUse" spreadMethod="reflect" id="stroke5"><stop offset="0" stop-color="#C00000" stop-opacity="1"/><stop offset="0.57" stop-color="#FF0000" stop-opacity="1"/><stop offset="0.81" stop-color="#FFC000" stop-opacity="1"/><stop offset="1" stop-color="#00B050" stop-opacity="1"/></linearGradient><linearGradient x1="1665.87" y1="482.379" x2="909.653" y2="1238.6" gradientUnits="userSpaceOnUse" spreadMethod="reflect" id="fill6"><stop offset="0" stop-color="#C00000" stop-opacity="1"/><stop offset="0.31" stop-color="#FF0000" stop-opacity="1"/><stop offset="0.73" stop-color="#FFC000" stop-opacity="1"/><stop offset="1" stop-color="#00B050" stop-opacity="1"/></linearGradient><linearGradient x1="1665.87" y1="482.379" x2="909.653" y2="1238.6" gradientUnits="userSpaceOnUse" spreadMethod="reflect" id="fill7"><stop offset="0" stop-color="#C00000" stop-opacity="1"/><stop offset="0.31" stop-color="#FF0000" stop-opacity="1"/><stop offset="0.73" stop-color="#FFC000" stop-opacity="1"/><stop offset="1" stop-color="#00B050" stop-opacity="1"/></linearGradient></defs><g transform="translate(-586 -183)"><g><path d="M589 912C589 511.041 914.041 186 1315 186 1715.96 186 2041 511.041 2041 912 2041 1312.96 1715.96 1638 1315 1638 914.041 1638 589 1312.96 589 912Z" fill="#FBE3D6" fill-rule="evenodd" fill-opacity="1"/><path d="M1524.86 1188.68C1537.45 1250.67 1453.21 1320.1 1336.7 1343.76 1220.19 1367.42 1115.53 1336.35 1102.95 1274.35 1143 1330.77 1267.51 1345.48 1381.05 1307.2 1458.97 1280.94 1514.65 1235.04 1524.86 1188.68Z" fill="url(#fill0)" fill-rule="evenodd"/><path d="M1101 685.166C1101 681.208 1104.21 678 1108.17 678L1136.83 678C1140.79 678 1144 681.208 1144 685.166L1144 1116.83C1144 1120.79 1140.79 1124 1136.83 1124L1108.17 1124C1104.21 1124 1101 1120.79 1101 1116.83Z" fill="url(#fill1)" fill-rule="evenodd"/><path d="M1624 590.5C1624 586.91 1626.91 584 1630.5 584L1656.5 584C1660.09 584 1663 586.91 1663 590.5L1663 1022.5C1663 1026.09 1660.09 1029 1656.5 1029L1630.5 1029C1626.91 1029 1624 1026.09 1624 1022.5Z" fill="url(#fill2)" fill-rule="evenodd"/><path d="M1461.12 962.196C1503.55 915.833 1576.68 913.699 1624.48 957.431 1672.27 1001.16 1676.62 1074.2 1634.19 1120.56 1591.76 1166.93 1518.63 1169.06 1470.84 1125.33 1423.05 1081.6 1418.7 1008.56 1461.12 962.196Z" fill="url(#fill3)" fill-rule="evenodd"/><path d="M940.712 1045.89C983.138 999.526 1056.27 997.393 1104.06 1041.13 1151.86 1084.86 1156.2 1157.89 1113.78 1204.26 1071.35 1250.62 998.216 1252.76 950.425 1209.02 902.634 1165.29 898.286 1092.25 940.712 1045.89Z" fill="url(#fill4)" fill-rule="evenodd"/><path d="M1023.5 480.5 1023.5 480.5" stroke="url(#stroke5)" stroke-width="19.4792" stroke-linecap="butt" stroke-linejoin="miter" stroke-miterlimit="8" fill="url(#fill6)" fill-rule="evenodd"/><path d="M1662.16 525.46 1663.99 533.797 1662.79 674.851 1103.85 798.068 1102 789.672 1102.13 648.915Z" fill="url(#fill7)" fill-rule="evenodd"/></g></g></svg>